<svg class="active" width="100%" height="118" viewBox="0 0 1200 118" fill="none" xmlns="http://www.w3.org/2000/svg">
<g clip-path="url(#clip0_1062_1486)">
<g clip-path="url(#clip1_1062_1486)">
<path d="M-284.866 9.04175C-90.0358 16.8871 12.3654 82.7527 327.636 95.448C642.906 108.143 825.468 7.44591 1157.57 20.8187C1352.4 28.6641 1454.8 94.5297 1770.07 107.225C2085.34 119.92 2267.9 19.2229 2600 32.5957" stroke="url(#paint0_linear_1062_1486)" stroke-opacity="0.64" stroke-width="1.5" stroke-linecap="round" stroke-linejoin="round" class="svg-elem-1"></path>
<path d="M-269.54 28.8932C-74.7096 36.7386 27.6917 102.604 342.962 115.299C658.233 127.995 840.795 27.2974 1172.89 40.6703C1367.72 48.5156 1470.12 114.381 1785.39 127.076C2100.66 139.772 2283.23 39.0744 2615.32 52.4473" stroke="url(#paint1_linear_1062_1486)" stroke-opacity="0.64" stroke-width="1.5" stroke-linecap="round" stroke-linejoin="round" class="svg-elem-2"></path>
<path d="M-243.408 49.1802C-48.5775 57.0256 53.8239 122.891 369.094 135.586C684.365 148.282 866.927 47.5845 1199.02 60.9573C1393.85 68.8027 1496.26 134.668 1811.53 147.363C2126.8 160.059 2309.36 59.3616 2641.46 72.7344" stroke="url(#paint2_linear_1062_1486)" stroke-opacity="0.64" stroke-width="1.5" stroke-linecap="round" stroke-linejoin="round" class="svg-elem-3"></path>
<path d="M-211.871 69.6842C-17.0404 77.5296 85.361 143.395 400.632 156.09C715.902 168.786 898.464 68.0884 1230.56 81.4612C1425.39 89.3066 1527.79 155.172 1843.06 167.867C2158.33 180.563 2340.9 79.8655 2672.99 93.2383" stroke="url(#paint3_linear_1062_1486)" stroke-opacity="0.64" stroke-width="1.5" stroke-linecap="round" stroke-linejoin="round" class="svg-elem-4"></path>
<path d="M-183.037 90.0796C11.7936 97.925 114.195 163.79 429.466 176.486C744.736 189.181 927.298 88.4839 1259.39 101.857C1454.22 109.702 1556.63 175.568 1871.9 188.263C2187.17 200.958 2369.73 100.261 2701.83 113.634" stroke="url(#paint4_linear_1062_1486)" stroke-opacity="0.64" stroke-width="1.5" stroke-linecap="round" stroke-linejoin="round" class="svg-elem-5"></path>
<path d="M-172.671 100.114C22.1595 107.959 124.561 173.825 439.831 186.52C755.102 199.215 937.664 98.5181 1269.76 111.891C1464.59 119.736 1566.99 185.602 1882.26 198.297C2197.53 210.992 2380.09 110.295 2712.19 123.668" stroke="url(#paint5_linear_1062_1486)" stroke-opacity="0.64" stroke-width="1.5" stroke-linecap="round" stroke-linejoin="round" class="svg-elem-6"></path>
<path d="M-167.488 105.132C27.3421 112.977 129.743 178.843 445.014 191.538C760.284 204.233 942.846 103.536 1274.94 116.909C1469.77 124.754 1572.17 190.62 1887.44 203.315C2202.72 216.01 2385.28 115.313 2717.37 128.686" stroke="url(#paint6_linear_1062_1486)" stroke-opacity="0.64" stroke-width="1.5" stroke-linecap="round" stroke-linejoin="round" class="svg-elem-7"></path>
<path d="M-165.007 110.04C29.8231 117.885 132.224 183.751 447.495 196.446C762.765 209.141 945.327 108.444 1277.42 121.817C1472.25 129.662 1574.66 195.528 1889.93 208.223C2205.2 220.918 2387.76 120.221 2719.85 133.594" stroke="url(#paint7_linear_1062_1486)" stroke-opacity="0.64" stroke-width="1.5" stroke-linecap="round" stroke-linejoin="round" class="svg-elem-8"></path>
<path d="M-159.825 115.057C35.005 122.903 137.406 188.768 452.677 201.463C767.947 214.159 950.509 113.461 1282.61 126.834C1477.44 134.68 1579.84 200.545 1895.11 213.24C2210.38 225.936 2392.94 125.239 2725.04 138.611" stroke="url(#paint8_linear_1062_1486)" stroke-opacity="0.64" stroke-width="1.5" stroke-linecap="round" stroke-linejoin="round" class="svg-elem-9"></path>
<path d="M-157.342 119.966C37.4876 127.811 139.889 193.677 455.159 206.372C770.43 219.067 952.992 118.37 1285.09 131.743C1479.92 139.588 1582.32 205.454 1897.59 218.149C2212.86 230.844 2395.42 130.147 2727.52 143.52" stroke="url(#paint9_linear_1062_1486)" stroke-opacity="0.64" stroke-width="1.5" stroke-linecap="round" stroke-linejoin="round" class="svg-elem-10"></path>
<path d="M-154.864 124.874C39.9664 132.719 142.368 198.585 457.638 211.28C772.909 223.975 955.471 123.278 1287.57 136.651C1482.4 144.496 1584.8 210.362 1900.07 223.057C2215.34 235.752 2397.9 135.055 2730 148.428" stroke="url(#paint10_linear_1062_1486)" stroke-opacity="0.64" stroke-width="1.5" stroke-linecap="round" stroke-linejoin="round" class="svg-elem-11"></path>
<path d="M-157.787 129.565C37.0435 137.411 139.445 203.276 454.715 215.971C769.986 228.667 952.548 127.969 1284.64 141.342C1479.47 149.188 1581.88 215.053 1897.15 227.748C2212.42 240.444 2394.98 139.746 2727.08 153.119" stroke="url(#paint11_linear_1062_1486)" stroke-opacity="0.64" stroke-width="1.5" stroke-linecap="round" stroke-linejoin="round" class="svg-elem-12"></path>
<path d="M-155.305 134.473C39.525 142.319 141.926 208.184 457.197 220.88C772.468 233.575 955.029 132.877 1287.13 146.25C1481.96 154.096 1584.36 219.961 1899.63 232.657C2214.9 245.352 2397.46 144.655 2729.56 158.027" stroke="url(#paint12_linear_1062_1486)" stroke-opacity="0.64" stroke-width="1.5" stroke-linecap="round" stroke-linejoin="round" class="svg-elem-13"></path>
</g>
</g>
<defs>
<linearGradient id="paint0_linear_1062_1486" x1="1185.71" y1="-24.3547" x2="1179.5" y2="129.751" gradientUnits="userSpaceOnUse">
<stop stop-color="#1853AB"></stop>
<stop offset="1" stop-color="#F30075"></stop>
</linearGradient>
<linearGradient id="paint1_linear_1062_1486" x1="1201.03" y1="-4.50311" x2="1194.83" y2="149.602" gradientUnits="userSpaceOnUse">
<stop stop-color="#1853AB"></stop>
<stop offset="1" stop-color="#F30075"></stop>
</linearGradient>
<linearGradient id="paint2_linear_1062_1486" x1="1227.17" y1="15.784" x2="1220.96" y2="169.889" gradientUnits="userSpaceOnUse">
<stop stop-color="#1853AB"></stop>
<stop offset="1" stop-color="#F30075"></stop>
</linearGradient>
<linearGradient id="paint3_linear_1062_1486" x1="1258.7" y1="36.2879" x2="1252.5" y2="190.393" gradientUnits="userSpaceOnUse">
<stop stop-color="#1853AB"></stop>
<stop offset="1" stop-color="#F30075"></stop>
</linearGradient>
<linearGradient id="paint4_linear_1062_1486" x1="1287.54" y1="56.6834" x2="1281.33" y2="210.789" gradientUnits="userSpaceOnUse">
<stop stop-color="#1853AB"></stop>
<stop offset="1" stop-color="#F30075"></stop>
</linearGradient>
<linearGradient id="paint5_linear_1062_1486" x1="1297.9" y1="66.7176" x2="1291.7" y2="220.823" gradientUnits="userSpaceOnUse">
<stop stop-color="#1853AB"></stop>
<stop offset="1" stop-color="#F30075"></stop>
</linearGradient>
<linearGradient id="paint6_linear_1062_1486" x1="1303.08" y1="71.7352" x2="1296.88" y2="225.841" gradientUnits="userSpaceOnUse">
<stop stop-color="#1853AB"></stop>
<stop offset="1" stop-color="#F30075"></stop>
</linearGradient>
<linearGradient id="paint7_linear_1062_1486" x1="1305.57" y1="76.6434" x2="1299.36" y2="230.749" gradientUnits="userSpaceOnUse">
<stop stop-color="#1853AB"></stop>
<stop offset="1" stop-color="#F30075"></stop>
</linearGradient>
<linearGradient id="paint8_linear_1062_1486" x1="1310.75" y1="81.661" x2="1304.54" y2="235.766" gradientUnits="userSpaceOnUse">
<stop stop-color="#1853AB"></stop>
<stop offset="1" stop-color="#F30075"></stop>
</linearGradient>
<linearGradient id="paint9_linear_1062_1486" x1="1313.23" y1="86.5692" x2="1307.02" y2="240.675" gradientUnits="userSpaceOnUse">
<stop stop-color="#1853AB"></stop>
<stop offset="1" stop-color="#F30075"></stop>
</linearGradient>
<linearGradient id="paint10_linear_1062_1486" x1="1315.71" y1="91.4773" x2="1309.5" y2="245.583" gradientUnits="userSpaceOnUse">
<stop stop-color="#1853AB"></stop>
<stop offset="1" stop-color="#F30075"></stop>
</linearGradient>
<linearGradient id="paint11_linear_1062_1486" x1="1312.79" y1="96.1688" x2="1306.58" y2="250.274" gradientUnits="userSpaceOnUse">
<stop stop-color="#1853AB"></stop>
<stop offset="1" stop-color="#F30075"></stop>
</linearGradient>
<linearGradient id="paint12_linear_1062_1486" x1="1315.27" y1="101.077" x2="1309.06" y2="255.182" gradientUnits="userSpaceOnUse">
<stop stop-color="#1853AB"></stop>
<stop offset="1" stop-color="#F30075"></stop>
</linearGradient>
<clipPath id="clip0_1062_1486">
<rect width="1200" height="118" fill="white" class="svg-elem-14"></rect>
</clipPath>
<clipPath id="clip1_1062_1486">
<rect width="1658" height="117" fill="white" transform="matrix(-1 0 0 1 1505 0)" class="svg-elem-15"></rect>
</clipPath>
</defs>
<style>

/***************************************************
 * Generated by SVG Artista on 4/10/2023, 7:21:06 PM
 * MIT license (https://opensource.org/licenses/MIT)
 * W. https://svgartista.net
 **************************************************/

.svg-elem-1 {
  stroke-dashoffset: 2911.251953125px;
  stroke-dasharray: 2911.251953125px;
  transition: stroke-dashoffset 1s cubic-bezier(0.47, 0, 0.745, 0.715) 0s,
                fill 0.7s cubic-bezier(0.47, 0, 0.745, 0.715) 0.8s;
}

.active .svg-elem-1 {
  stroke-dashoffset: 0;
}

.svg-elem-2 {
  stroke-dashoffset: 2911.24609375px;
  stroke-dasharray: 2911.24609375px;
  transition: stroke-dashoffset 1s cubic-bezier(0.47, 0, 0.745, 0.715) 0.12s,
                fill 0.7s cubic-bezier(0.47, 0, 0.745, 0.715) 0.9s;
}

.active .svg-elem-2 {
  stroke-dashoffset: 0;
}

.svg-elem-3 {
  stroke-dashoffset: 2911.253662109375px;
  stroke-dasharray: 2911.253662109375px;
  transition: stroke-dashoffset 1s cubic-bezier(0.47, 0, 0.745, 0.715) 0.24s,
                fill 0.7s cubic-bezier(0.47, 0, 0.745, 0.715) 1s;
}

.active .svg-elem-3 {
  stroke-dashoffset: 0;
}

.svg-elem-4 {
  stroke-dashoffset: 2911.24658203125px;
  stroke-dasharray: 2911.24658203125px;
  transition: stroke-dashoffset 1s cubic-bezier(0.47, 0, 0.745, 0.715) 0.36s,
                fill 0.7s cubic-bezier(0.47, 0, 0.745, 0.715) 1.1s;
}

.active .svg-elem-4 {
  stroke-dashoffset: 0;
}

.svg-elem-5 {
  stroke-dashoffset: 2911.2529296875px;
  stroke-dasharray: 2911.2529296875px;
  transition: stroke-dashoffset 1s cubic-bezier(0.47, 0, 0.745, 0.715) 0.48s,
                fill 0.7s cubic-bezier(0.47, 0, 0.745, 0.715) 1.2000000000000002s;
}

.active .svg-elem-5 {
  stroke-dashoffset: 0;
}

.svg-elem-6 {
  stroke-dashoffset: 2911.246826171875px;
  stroke-dasharray: 2911.246826171875px;
  transition: stroke-dashoffset 1s cubic-bezier(0.47, 0, 0.745, 0.715) 0.6s,
                fill 0.7s cubic-bezier(0.47, 0, 0.745, 0.715) 1.3s;
}

.active .svg-elem-6 {
  stroke-dashoffset: 0;
}

.svg-elem-7 {
  stroke-dashoffset: 2911.244140625px;
  stroke-dasharray: 2911.244140625px;
  transition: stroke-dashoffset 1s cubic-bezier(0.47, 0, 0.745, 0.715) 0.72s,
                fill 0.7s cubic-bezier(0.47, 0, 0.745, 0.715) 1.4000000000000001s;
}

.active .svg-elem-7 {
  stroke-dashoffset: 0;
}

.svg-elem-8 {
  stroke-dashoffset: 2911.242919921875px;
  stroke-dasharray: 2911.242919921875px;
  transition: stroke-dashoffset 1s cubic-bezier(0.47, 0, 0.745, 0.715) 0.84s,
                fill 0.7s cubic-bezier(0.47, 0, 0.745, 0.715) 1.5s;
}

.active .svg-elem-8 {
  stroke-dashoffset: 0;
}

.svg-elem-9 {
  stroke-dashoffset: 2911.2509765625px;
  stroke-dasharray: 2911.2509765625px;
  transition: stroke-dashoffset 1s cubic-bezier(0.47, 0, 0.745, 0.715) 0.96s,
                fill 0.7s cubic-bezier(0.47, 0, 0.745, 0.715) 1.6s;
}

.active .svg-elem-9 {
  stroke-dashoffset: 0;
}

.svg-elem-10 {
  stroke-dashoffset: 2911.248046875px;
  stroke-dasharray: 2911.248046875px;
  transition: stroke-dashoffset 1s cubic-bezier(0.47, 0, 0.745, 0.715) 1.08s,
                fill 0.7s cubic-bezier(0.47, 0, 0.745, 0.715) 1.7000000000000002s;
}

.active .svg-elem-10 {
  stroke-dashoffset: 0;
}

.svg-elem-11 {
  stroke-dashoffset: 2911.25px;
  stroke-dasharray: 2911.25px;
  transition: stroke-dashoffset 1s cubic-bezier(0.47, 0, 0.745, 0.715) 1.2s,
                fill 0.7s cubic-bezier(0.47, 0, 0.745, 0.715) 1.8s;
}

.active .svg-elem-11 {
  stroke-dashoffset: 0;
}

.svg-elem-12 {
  stroke-dashoffset: 2911.253173828125px;
  stroke-dasharray: 2911.253173828125px;
  transition: stroke-dashoffset 1s cubic-bezier(0.47, 0, 0.745, 0.715) 1.3199999999999998s,
                fill 0.7s cubic-bezier(0.47, 0, 0.745, 0.715) 1.9000000000000001s;
}

.active .svg-elem-12 {
  stroke-dashoffset: 0;
}

.svg-elem-13 {
  stroke-dashoffset: 2911.251220703125px;
  stroke-dasharray: 2911.251220703125px;
  transition: stroke-dashoffset 1s cubic-bezier(0.47, 0, 0.745, 0.715) 1.44s,
                fill 0.7s cubic-bezier(0.47, 0, 0.745, 0.715) 2s;
}

.active .svg-elem-13 {
  stroke-dashoffset: 0;
}

.svg-elem-14 {
  stroke-dashoffset: 2638px;
  stroke-dasharray: 2638px;
  fill: transparent;
  transition: stroke-dashoffset 1s cubic-bezier(0.47, 0, 0.745, 0.715) 1.56s,
                fill 0.7s cubic-bezier(0.47, 0, 0.745, 0.715) 2.1s;
}

.active .svg-elem-14 {
  stroke-dashoffset: 0;
  fill: rgb(255, 255, 255);
}

.svg-elem-15 {
  stroke-dashoffset: 3552px;
  stroke-dasharray: 3552px;
  fill: transparent;
  transition: stroke-dashoffset 1s cubic-bezier(0.47, 0, 0.745, 0.715) 1.68s,
                fill 0.7s cubic-bezier(0.47, 0, 0.745, 0.715) 2.2s;
}

.active .svg-elem-15 {
  stroke-dashoffset: 0;
  fill: rgb(255, 255, 255);
}

.active path {
  animation: draw 5s cubic-bezier(0.1, 0.7, 1.0, 0.1) forwards;
  animation-play-state: running;
}

@keyframes draw {
  0% {
    stroke-dasharray: 0 4000;
  }
  100% {
    stroke-dasharray: 4000 0;
  }
}

</style>
</svg>
