<svg class="active" width="100%" height="103" viewBox="0 0 1200 103" fill="none" xmlns="http://www.w3.org/2000/svg">
<g clip-path="url(#clip0_1062_1486)">
<g clip-path="url(#clip1_1062_1486)">
<path d="M-284.866 -5.95825C-90.0358 1.88713 12.3654 67.7527 327.636 80.448C642.906 93.1433 825.468 -7.55409 1157.57 5.81873C1352.4 13.6641 1454.8 79.5297 1770.07 92.225C2085.34 104.92 2267.9 4.22288 2600 17.5957" stroke="url(#paint0_linear_1062_1486)" stroke-opacity="0.64" stroke-width="1.5" stroke-linecap="round" stroke-linejoin="round" class="svg-elem-1"></path>
<path d="M-269.54 13.8932C-74.7096 21.7386 27.6917 87.6042 342.962 100.299C658.233 112.995 840.795 12.2974 1172.89 25.6703C1367.72 33.5156 1470.12 99.3812 1785.39 112.076C2100.66 124.772 2283.23 24.0744 2615.32 37.4473" stroke="url(#paint1_linear_1062_1486)" stroke-opacity="0.64" stroke-width="1.5" stroke-linecap="round" stroke-linejoin="round" class="svg-elem-2"></path>
<path d="M-243.408 34.1802C-48.5775 42.0256 53.8239 107.891 369.094 120.586C684.365 133.282 866.927 32.5845 1199.02 45.9573C1393.85 53.8027 1496.26 119.668 1811.53 132.363C2126.8 145.059 2309.36 44.3616 2641.46 57.7344" stroke="url(#paint2_linear_1062_1486)" stroke-opacity="0.64" stroke-width="1.5" stroke-linecap="round" stroke-linejoin="round" class="svg-elem-3"></path>
<path d="M-211.872 54.6842C-17.0414 62.5296 85.36 128.395 400.631 141.09C715.901 153.786 898.463 53.0884 1230.56 66.4612C1425.39 74.3066 1527.79 140.172 1843.06 152.867C2158.33 165.563 2340.89 64.8655 2672.99 78.2383" stroke="url(#paint3_linear_1062_1486)" stroke-opacity="0.64" stroke-width="1.5" stroke-linecap="round" stroke-linejoin="round" class="svg-elem-4"></path>
<path d="M-183.037 75.0796C11.7936 82.925 114.195 148.79 429.466 161.486C744.736 174.181 927.298 73.4839 1259.39 86.8567C1454.22 94.7021 1556.63 160.568 1871.9 173.263C2187.17 185.958 2369.73 85.261 2701.83 98.6338" stroke="url(#paint4_linear_1062_1486)" stroke-opacity="0.64" stroke-width="1.5" stroke-linecap="round" stroke-linejoin="round" class="svg-elem-5"></path>
<path d="M-167.489 90.1316C27.3411 97.9769 129.742 163.843 445.013 176.538C760.283 189.233 942.845 88.5357 1274.94 101.909C1469.77 109.754 1572.17 175.62 1887.44 188.315C2202.71 201.01 2385.28 100.313 2717.37 113.686" stroke="url(#paint5_linear_1062_1486)" stroke-opacity="0.64" stroke-width="1.5" stroke-linecap="round" stroke-linejoin="round" class="svg-elem-6"></path>
</g>
</g>
<defs>
<linearGradient id="paint0_linear_1062_1486" x1="1185.71" y1="-39.3547" x2="1179.5" y2="114.751" gradientUnits="userSpaceOnUse">
<stop stop-color="#1853AB"></stop>
<stop offset="1" stop-color="#F30075"></stop>
</linearGradient>
<linearGradient id="paint1_linear_1062_1486" x1="1201.03" y1="-19.5031" x2="1194.83" y2="134.602" gradientUnits="userSpaceOnUse">
<stop stop-color="#1853AB"></stop>
<stop offset="1" stop-color="#F30075"></stop>
</linearGradient>
<linearGradient id="paint2_linear_1062_1486" x1="1227.17" y1="0.783986" x2="1220.96" y2="154.889" gradientUnits="userSpaceOnUse">
<stop stop-color="#1853AB"></stop>
<stop offset="1" stop-color="#F30075"></stop>
</linearGradient>
<linearGradient id="paint3_linear_1062_1486" x1="1258.7" y1="21.2879" x2="1252.5" y2="175.393" gradientUnits="userSpaceOnUse">
<stop stop-color="#1853AB"></stop>
<stop offset="1" stop-color="#F30075"></stop>
</linearGradient>
<linearGradient id="paint4_linear_1062_1486" x1="1287.54" y1="41.6834" x2="1281.33" y2="195.789" gradientUnits="userSpaceOnUse">
<stop stop-color="#1853AB"></stop>
<stop offset="1" stop-color="#F30075"></stop>
</linearGradient>
<linearGradient id="paint5_linear_1062_1486" x1="1303.08" y1="56.7352" x2="1296.88" y2="210.841" gradientUnits="userSpaceOnUse">
<stop stop-color="#1853AB"></stop>
<stop offset="1" stop-color="#F30075"></stop>
</linearGradient>
<clipPath id="clip0_1062_1486">
<rect width="1200" height="103" fill="white" class="svg-elem-7"></rect>
</clipPath>
<clipPath id="clip1_1062_1486">
<rect width="1658" height="102" fill="white" transform="matrix(-1 0 0 1 1505 0)" class="svg-elem-8"></rect>
</clipPath>
</defs>

<style>
.active path {
  animation: draw 5s cubic-bezier(0.1, 0.7, 1.0, 0.1) forwards;
  animation-play-state: running;
}

@keyframes draw {
  0% {
    stroke-dasharray: 0 4000;
  }
  100% {
    stroke-dasharray: 4000 0;
  }
}
</style>
</svg>
